# xmcd CD database file
#
# Track frame offsets:
#	150
#	21669
#	45346
#	61817
#	87611
#	110916
#	135113
#	158376
#	179771
#	204402
#	220248
#	244311
#	267905
#	292720
#	310037
#
# Disc length: 4461 seconds
#
# Revision: 0
# Processed by: cddbd v1.5.1PL0 Copyright (c) Steve Scherf et al.
# Submitted via: CDex 1.51
#
DISCID=d2116b0f
DTITLE=Jazz Jamaica - Motorcity Roots
DYEAR=2005
DGENRE=Jazz
TTITLE0=I Want You Back
TTITLE1=Dancing In The Street
TTITLE2=Signed Sealed Delivered
TTITLE3=You Keep Me Hanging On
TTITLE4=Easy
TTITLE5=Just My Imagination
TTITLE6=Tears Of A Clown
TTITLE7=I Was Made To Love Her
TTITLE8=What's Going On?
TTITLE9=My Girl
TTITLE10=My Guy
TTITLE11=Ma Cherie Amour
TTITLE12=I Heard It Through The Grapevine
TTITLE13=This Old Heart Of Mine
TTITLE14=War
EXTD=YEAR: 2005
EXTT0=
EXTT1=
EXTT2=
EXTT3=
EXTT4=
EXTT5=
EXTT6=
EXTT7=
EXTT8=
EXTT9=
EXTT10=
EXTT11=
EXTT12=
EXTT13=
EXTT14=
PLAYORDER=
